<svg id="Layer_1" data-name="Layer 1" xmlns="http://www.w3.org/2000/svg" viewBox="0 0 532.71 85.07"><defs><style>.cls-1{fill:#92003b;}.cls-2{fill:#ff7be5;}</style></defs><path class="cls-1" d="M334.63,38.55l-8.36,2-5.82,1.32h-.05a20,20,0,0,1,.49-4.75c.48-1.95,1.54-4.23,3.37-5.24a7.78,7.78,0,0,1,6.55-.37c2.19.87,3.2,3,3.63,5.17.12.61.2,1.23.26,1.84Zm15.17,3.31c0-15.18-9.56-21.7-21.78-21.7-13.82,0-22.47,9.56-22.47,21.78,0,13.28,7.36,21.93,23.23,21.93,8.57,0,13.43-1.51,19.2-4.4l-2.2-9.94a32.08,32.08,0,0,1-14,3.19c-6,0-9.41-2.28-10.7-6.53h28.31a21,21,0,0,0,.38-4.33"/><path class="cls-1" d="M207.59,38.55l-8.35,2-5.82,1.32h-.06a20,20,0,0,1,.49-4.75c.49-1.95,1.54-4.23,3.38-5.24a7.78,7.78,0,0,1,6.55-.37c2.18.87,3.19,3,3.62,5.17.12.61.2,1.23.26,1.84Zm15.17,3.31c0-15.18-9.56-21.7-21.78-21.7-13.81,0-22.46,9.56-22.46,21.78,0,13.28,7.36,21.93,23.22,21.93,8.58,0,13.43-1.51,19.2-4.4l-2.2-9.94a32.07,32.07,0,0,1-14,3.19c-6,0-9.42-2.28-10.71-6.53h28.31a21,21,0,0,0,.38-4.33"/><rect class="cls-1" x="158.55" y="9" width="14.02" height="53.36"/><path class="cls-1" d="M352.76,21.52h14.72l3.1,9.44c1.94-4.66,6.3-10.65,14-10.65,10.63,0,16.4,5.39,16.4,19.28V62.35H386.29q0-7.11,0-14.23c0-2.17,0-4.35,0-6.52,0-2,.16-4.09-.91-5.89A7.23,7.23,0,0,0,382.2,33a8.67,8.67,0,0,0-8,.12c-.63.33-3.66,2-3.66,2.73V62.35H355.86V32.54Z"/><path class="cls-1" d="M412.16,32.22H405.4V21.52h6.76V14.83l14.72-3.46V21.52h14.8v10.7h-14.8v12c0,4.7,2.28,6.9,5.69,6.9A23.07,23.07,0,0,0,441,49.68l1.74,11.08a36.18,36.18,0,0,1-14.11,2.58c-10.71,0-16.47-5.08-16.47-15Z"/><path class="cls-1" d="M469.23,51.73c5.39,0,8.58-3.87,8.58-10.09s-3-9.8-8.35-9.8-8.5,3.57-8.5,10c0,6.08,3,9.87,8.27,9.87m.15-31.8c13.81,0,23.91,8.65,23.91,22.08s-10.1,21.64-24.06,21.64S445.47,55.3,445.47,42s9.79-22.08,23.91-22.08"/><path class="cls-1" d="M292.36,21.4A16,16,0,0,0,284,20.33a13.89,13.89,0,0,0-4.14,1.26c-3.56,1.77-6.35,5.78-7.84,9.37a13.73,13.73,0,0,0-8-9.56,16.07,16.07,0,0,0-8.37-1.07,13.92,13.92,0,0,0-4.13,1.26c-3.56,1.76-6.34,5.76-7.84,9.34v-.27l-3-9.14H226l3.1,11V62.36h14.62V35.72c.06-.2.71-.57.83-.65a12.24,12.24,0,0,1,5.87-2.63A6.63,6.63,0,0,1,256,35.13a5.87,5.87,0,0,1,.39.58c1.07,1.8.93,3.88.9,5.89,0,2.17,0,4.35,0,6.52q0,7.11,0,14.24H272V35.73c0-.19.7-.58.82-.66a12.31,12.31,0,0,1,5.88-2.63,6.61,6.61,0,0,1,5.64,2.69,4.52,4.52,0,0,1,.39.58c1.07,1.8.93,3.88.91,5.89,0,2.17,0,4.35,0,6.52q0,7.11,0,14.24h14.73V39.59c0-6.69-1-15.28-8-18.19"/><path class="cls-1" d="M528.11,20.31c-7.74,0-12.1,6-14,10.64L511,21.52H496.24l3.1,11V62.35h14.73V34.8c2.1-.37,13.49,1.73,15.64,2.52v-17c-.52,0-1.05-.05-1.6-.05"/><path class="cls-1" d="M137.43,38.55l-8.35,2-5.82,1.32h-.05a20,20,0,0,1,.49-4.75c.48-1.95,1.54-4.23,3.37-5.24a7.78,7.78,0,0,1,6.55-.37c2.19.87,3.2,3,3.63,5.17a16.58,16.58,0,0,1,.25,1.84Zm15.18,3.31c0-15.18-9.56-21.7-21.78-21.7-13.82,0-22.47,9.56-22.47,21.78,0,13.28,7.36,21.93,23.22,21.93,8.58,0,13.44-1.51,19.21-4.4l-2.2-9.94a32.11,32.11,0,0,1-14,3.19c-6,0-9.41-2.28-10.7-6.53h28.31a21,21,0,0,0,.38-4.33"/><path class="cls-1" d="M45.06.48A42.06,42.06,0,1,0,87.11,42.54,42.06,42.06,0,0,0,45.06.48Z"/><rect class="cls-2" x="27.53" y="25.01" width="7.01" height="35.05"/><rect class="cls-2" x="41.55" y="53.05" width="21.03" height="7.01"/><rect class="cls-2" x="41.55" y="39.03" width="21.03" height="7.01"/><rect class="cls-2" x="41.55" y="25.01" width="21.03" height="7.01"/></svg>